<svg width="57" height="56" viewBox="0 0 57 56" fill="none" xmlns="http://www.w3.org/2000/svg">
<rect x="4.5" y="4" width="48" height="48" rx="24" fill="#F4EBFF"/>
<rect x="4.5" y="4" width="48" height="48" rx="24" stroke="#F9F5FF" stroke-width="8"/>
<path d="M40.9308 17.0088C40.9165 16.7641 40.8129 16.5332 40.6396 16.36C40.4664 16.1867 40.2355 16.0831 39.9908 16.0688C30.4746 15.51 22.8521 18.375 19.6021 23.75C18.4756 25.5887 17.9205 27.7205 18.0071 29.875C18.0783 31.865 18.6583 33.875 19.7308 35.8563L17.2921 38.2938C17.1044 38.4814 16.999 38.7359 16.999 39.0013C16.999 39.2666 17.1044 39.5211 17.2921 39.7088C17.4797 39.8964 17.7342 40.0018 17.9996 40.0018C18.2649 40.0018 18.5194 39.8964 18.7071 39.7088L21.1446 37.27C23.1246 38.3413 25.1358 38.9213 27.1246 38.9925C27.2637 38.9975 27.4025 39 27.5408 39C29.5555 39.0054 31.532 38.4506 33.2496 37.3975C38.6246 34.1475 41.4908 26.5263 40.9308 17.0088ZM32.2183 35.6875C29.3746 37.41 26.0083 37.4375 22.6296 35.7838L33.7083 24.7063C33.8012 24.6134 33.8749 24.5031 33.9252 24.3817C33.9755 24.2603 34.0014 24.1302 34.0014 23.9988C34.0014 23.8674 33.9755 23.7373 33.9252 23.6159C33.8749 23.4945 33.8012 23.3842 33.7083 23.2913C33.6154 23.1984 33.5051 23.1247 33.3837 23.0744C33.2623 23.0241 33.1322 22.9982 33.0008 22.9982C32.8694 22.9982 32.7393 23.0241 32.6179 23.0744C32.4965 23.1247 32.3862 23.1984 32.2933 23.2913L21.2158 34.375C19.5671 31 19.5908 27.625 21.3121 24.7863C24.0733 20.2275 30.6371 17.7313 38.9758 18.0288C39.2746 26.3613 36.7771 32.9263 32.2183 35.6875Z" fill="#FFA52F"/>
</svg>
