<svg width="57" height="56" viewBox="0 0 57 56" fill="none" xmlns="http://www.w3.org/2000/svg">
<rect x="4.5" y="4" width="48" height="48" rx="24" fill="#F9F5FF"/>
<rect x="4.5" y="4" width="48" height="48" rx="24" stroke="#F9F5FF" stroke-width="8"/>
<path d="M41 17V22C41 22.2652 40.8946 22.5196 40.7071 22.7071C40.5196 22.8946 40.2652 23 40 23C39.7348 23 39.4804 22.8946 39.2929 22.7071C39.1054 22.5196 39 22.2652 39 22V18H35C34.7348 18 34.4804 17.8946 34.2929 17.7071C34.1054 17.5196 34 17.2652 34 17C34 16.7348 34.1054 16.4804 34.2929 16.2929C34.4804 16.1054 34.7348 16 35 16H40C40.2652 16 40.5196 16.1054 40.7071 16.2929C40.8946 16.4804 41 16.7348 41 17ZM23 38H19V34C19 33.7348 18.8946 33.4804 18.7071 33.2929C18.5196 33.1054 18.2652 33 18 33C17.7348 33 17.4804 33.1054 17.2929 33.2929C17.1054 33.4804 17 33.7348 17 34V39C17 39.2652 17.1054 39.5196 17.2929 39.7071C17.4804 39.8946 17.7348 40 18 40H23C23.2652 40 23.5196 39.8946 23.7071 39.7071C23.8946 39.5196 24 39.2652 24 39C24 38.7348 23.8946 38.4804 23.7071 38.2929C23.5196 38.1054 23.2652 38 23 38ZM40 33C39.7348 33 39.4804 33.1054 39.2929 33.2929C39.1054 33.4804 39 33.7348 39 34V38H35C34.7348 38 34.4804 38.1054 34.2929 38.2929C34.1054 38.4804 34 38.7348 34 39C34 39.2652 34.1054 39.5196 34.2929 39.7071C34.4804 39.8946 34.7348 40 35 40H40C40.2652 40 40.5196 39.8946 40.7071 39.7071C40.8946 39.5196 41 39.2652 41 39V34C41 33.7348 40.8946 33.4804 40.7071 33.2929C40.5196 33.1054 40.2652 33 40 33ZM18 23C18.2652 23 18.5196 22.8946 18.7071 22.7071C18.8946 22.5196 19 22.2652 19 22V18H23C23.2652 18 23.5196 17.8946 23.7071 17.7071C23.8946 17.5196 24 17.2652 24 17C24 16.7348 23.8946 16.4804 23.7071 16.2929C23.5196 16.1054 23.2652 16 23 16H18C17.7348 16 17.4804 16.1054 17.2929 16.2929C17.1054 16.4804 17 16.7348 17 17V22C17 22.2652 17.1054 22.5196 17.2929 22.7071C17.4804 22.8946 17.7348 23 18 23ZM23 21H35C35.2652 21 35.5196 21.1054 35.7071 21.2929C35.8946 21.4804 36 21.7348 36 22V34C36 34.2652 35.8946 34.5196 35.7071 34.7071C35.5196 34.8946 35.2652 35 35 35H23C22.7348 35 22.4804 34.8946 22.2929 34.7071C22.1054 34.5196 22 34.2652 22 34V22C22 21.7348 22.1054 21.4804 22.2929 21.2929C22.4804 21.1054 22.7348 21 23 21ZM24 33H34V23H24V33Z" fill="#FFA52F"/>
</svg>
