<svg width="1447" height="266" viewBox="0 0 1447 266" fill="none" xmlns="http://www.w3.org/2000/svg">
<path d="M10.5 435C7.5 435 5 433.833 3 431.5C1 429.5 1.04308e-07 427.167 1.04308e-07 424.5C1.04308e-07 422.833 0.333333 421.167 1 419.5L171 11.5C172 8.83332 173.667 6.33331 176 3.99997C178.667 1.33332 182.5 -6.67572e-06 187.5 -6.67572e-06H226C229 -6.67572e-06 231.5 1.16665 233.5 3.49998C235.5 5.49997 236.5 7.83331 236.5 10.5C236.5 11.8333 236.167 13.5 235.5 15.5L65 423.5C64 425.833 62.1667 428.333 59.5 431C57.1667 433.667 53.3333 435 48 435H10.5Z" fill="#FFA52F"/>
<path d="M319.238 393C315.572 393 312.572 391.833 310.238 389.5C307.905 387.167 306.738 384.167 306.738 380.5V55.5C306.738 51.8333 307.905 48.8333 310.238 46.5C312.572 44.1666 315.572 43 319.238 43H451.738C493.405 43 526.238 52.6666 550.238 72C574.238 91 586.238 118.5 586.238 154.5C586.238 178.833 580.405 199.167 568.738 215.5C557.072 231.833 541.405 244 521.738 252L592.238 377C593.238 379 593.738 380.833 593.738 382.5C593.738 385.167 592.738 387.667 590.738 390C588.738 392 586.238 393 583.238 393H527.738C521.738 393 517.238 391.5 514.238 388.5C511.238 385.167 509.072 382.167 507.738 379.5L446.738 265H386.238V380.5C386.238 384.167 385.072 387.167 382.738 389.5C380.405 391.833 377.405 393 373.738 393H319.238ZM386.238 201.5H450.238C468.572 201.5 482.072 197.333 490.738 189C499.738 180.667 504.238 169 504.238 154C504.238 139 499.905 127.167 491.238 118.5C482.572 109.833 468.905 105.5 450.238 105.5H386.238V201.5ZM660.059 393C656.392 393 653.392 391.833 651.059 389.5C648.725 387.167 647.559 384.167 647.559 380.5V55.5C647.559 51.8333 648.725 48.8333 651.059 46.5C653.392 44.1666 656.392 43 660.059 43H716.559C720.225 43 723.225 44.1666 725.559 46.5C727.892 48.8333 729.059 51.8333 729.059 55.5V380.5C729.059 384.167 727.892 387.167 725.559 389.5C723.225 391.833 720.225 393 716.559 393H660.059ZM815.332 393C811.665 393 808.665 391.833 806.332 389.5C803.999 387.167 802.832 384.167 802.832 380.5V55.5C802.832 51.8333 803.999 48.8333 806.332 46.5C808.665 44.1666 811.665 43 815.332 43H940.832C974.165 43 1002 48.3333 1024.33 59C1046.67 69.3333 1063.67 84.6667 1075.33 105C1087.33 125 1093.67 149.833 1094.33 179.5C1094.67 194.167 1094.83 207 1094.83 218C1094.83 229 1094.67 241.667 1094.33 256C1093.33 287 1087.17 312.667 1075.83 333C1064.5 353.333 1047.83 368.5 1025.83 378.5C1003.83 388.167 976.332 393 943.332 393H815.332ZM882.332 328.5H940.832C957.499 328.5 971.165 326 981.832 321C992.499 316 1000.33 308.167 1005.33 297.5C1010.67 286.5 1013.5 272.333 1013.83 255C1014.17 245.333 1014.33 236.667 1014.33 229C1014.67 221.333 1014.67 213.667 1014.33 206C1014.33 198.333 1014.17 189.833 1013.83 180.5C1013.17 155.5 1006.67 137.167 994.332 125.5C982.332 113.5 963.665 107.5 938.332 107.5H882.332V328.5ZM1296.32 398C1265.99 398 1239.82 393 1217.82 383C1195.82 373 1178.66 358 1166.32 338C1153.99 317.667 1147.32 292.167 1146.32 261.5C1145.99 247.167 1145.82 233 1145.82 219C1145.82 204.667 1145.99 190.167 1146.32 175.5C1147.32 145.5 1153.99 120.333 1166.32 100C1178.99 79.3333 1196.32 63.8333 1218.32 53.5C1240.66 43.1667 1266.66 38 1296.32 38C1325.66 38 1351.32 43.1667 1373.32 53.5C1395.66 63.8333 1413.16 79.3333 1425.82 100C1438.49 120.333 1445.16 145.5 1445.82 175.5C1446.49 190.167 1446.82 204.667 1446.82 219C1446.82 233 1446.49 247.167 1445.82 261.5C1444.82 292.167 1438.16 317.667 1425.82 338C1413.49 358 1396.32 373 1374.32 383C1352.32 393 1326.32 398 1296.32 398ZM1296.32 333.5C1315.66 333.5 1331.49 327.667 1343.82 316C1356.49 304 1363.16 285 1363.82 259C1364.49 244.333 1364.82 230.667 1364.82 218C1364.82 205 1364.49 191.333 1363.82 177C1363.49 159.667 1360.32 145.5 1354.32 134.5C1348.32 123.5 1340.32 115.5 1330.32 110.5C1320.66 105.167 1309.32 102.5 1296.32 102.5C1283.32 102.5 1271.82 105.167 1261.82 110.5C1251.82 115.5 1243.82 123.5 1237.82 134.5C1232.16 145.5 1228.99 159.667 1228.32 177C1227.99 191.333 1227.82 205 1227.82 218C1227.82 230.667 1227.99 244.333 1228.32 259C1229.32 285 1235.99 304 1248.32 316C1260.66 327.667 1276.66 333.5 1296.32 333.5Z" fill="white"/>
</svg>
