<svg width="306" height="88" viewBox="0 0 306 88" fill="none" xmlns="http://www.w3.org/2000/svg">
<path d="M2.4 87.4C1.8 87.4 1.26667 87.1667 0.8 86.7C0.4 86.3 0.2 85.8 0.2 85.2C0.2 84.9333 0.266667 84.6333 0.4 84.3L34.1 3.09999C34.3667 2.5 34.8 1.9 35.4 1.3C36.0667 0.699999 36.9667 0.399999 38.1 0.399999H49.3C49.9 0.399999 50.4 0.633331 50.8 1.1C51.2667 1.49999 51.5 1.99999 51.5 2.59999C51.5 2.86666 51.4 3.16666 51.2 3.49999L17.3 84.7C17.1 85.3 16.7 85.9 16.1 86.5C15.5 87.1 14.5667 87.4 13.3 87.4H2.4Z" fill="#FFA52F"/>
<path d="M67.4445 79C66.7779 79 66.1779 78.7667 65.6445 78.3C65.1112 77.7667 64.8445 77.1333 64.8445 76.4V11.6C64.8445 10.8667 65.1112 10.2667 65.6445 9.8C66.1779 9.26666 66.7779 9 67.4445 9H95.9445C105.011 9 112.111 11.0667 117.245 15.2C122.445 19.3333 125.045 25.1 125.045 32.5C125.045 37.1667 123.978 41.1333 121.845 44.4C119.711 47.6667 116.911 50.2333 113.445 52.1L126.445 75.7C126.645 76.1 126.745 76.4667 126.745 76.8C126.745 77.4 126.545 77.9333 126.145 78.4C125.745 78.8 125.245 79 124.645 79H107.745C106.478 79 105.511 78.7 104.845 78.1C104.178 77.4333 103.745 76.8333 103.545 76.3L93.5445 55.7H86.3445V76.4C86.3445 77.1333 86.0779 77.7667 85.5445 78.3C85.0779 78.7667 84.4779 79 83.7445 79H67.4445ZM86.3445 39.2H95.8445C98.1779 39.2 99.9112 38.5667 101.045 37.3C102.178 35.9667 102.745 34.3333 102.745 32.4C102.745 30.4 102.178 28.7 101.045 27.3C99.9779 25.9 98.2445 25.2 95.8445 25.2H86.3445V39.2ZM138.148 79C137.481 79 136.881 78.7667 136.348 78.3C135.814 77.7667 135.548 77.1333 135.548 76.4V11.6C135.548 10.8667 135.814 10.2667 136.348 9.8C136.881 9.26666 137.481 9 138.148 9H155.148C155.881 9 156.481 9.26666 156.948 9.8C157.481 10.2667 157.748 10.8667 157.748 11.6V76.4C157.748 77.1333 157.481 77.7667 156.948 78.3C156.481 78.7667 155.881 79 155.148 79H138.148ZM172.718 79C172.051 79 171.451 78.7667 170.918 78.3C170.385 77.7667 170.118 77.1333 170.118 76.4V11.6C170.118 10.8667 170.385 10.2667 170.918 9.8C171.451 9.26666 172.051 9 172.718 9H200.118C206.585 9 212.185 10.0667 216.918 12.2C221.651 14.2667 225.385 17.3333 228.118 21.4C230.851 25.4667 232.318 30.4667 232.518 36.4C232.651 39.2667 232.718 41.8 232.718 44C232.718 46.2 232.651 48.7 232.518 51.5C232.251 57.7667 230.818 62.9333 228.218 67C225.685 71.0667 222.085 74.1 217.418 76.1C212.751 78.0333 207.151 79 200.618 79H172.718ZM191.618 62H200.118C202.318 62 204.185 61.6333 205.718 60.9C207.251 60.1667 208.451 59.0333 209.318 57.5C210.185 55.9 210.651 53.8667 210.718 51.4C210.785 49.4667 210.818 47.7333 210.818 46.2C210.885 44.6667 210.885 43.1333 210.818 41.6C210.818 40.0667 210.785 38.3667 210.718 36.5C210.585 32.8333 209.518 30.1667 207.518 28.5C205.585 26.8333 202.951 26 199.618 26H191.618V62ZM273.072 80C266.672 80 261.105 79 256.372 77C251.705 75 248.005 72 245.272 68C242.605 63.9333 241.172 58.9 240.972 52.9C240.905 50.1 240.872 47.2333 240.872 44.3C240.872 41.3 240.905 38.3333 240.972 35.4C241.172 29.4667 242.605 24.4667 245.272 20.4C248.005 16.3333 251.739 13.2667 256.472 11.2C261.205 9.06666 266.739 8 273.072 8C279.339 8 284.839 9.06666 289.572 11.2C294.305 13.2667 298.039 16.3333 300.772 20.4C303.505 24.4667 304.939 29.4667 305.072 35.4C305.205 38.3333 305.272 41.3 305.272 44.3C305.272 47.2333 305.205 50.1 305.072 52.9C304.872 58.9 303.405 63.9333 300.672 68C298.005 72 294.305 75 289.572 77C284.905 79 279.405 80 273.072 80ZM273.072 63C275.872 63 278.172 62.1667 279.972 60.5C281.772 58.7667 282.705 56.0333 282.772 52.3C282.905 49.4333 282.972 46.6667 282.972 44C282.972 41.2667 282.905 38.5 282.772 35.7C282.705 33.2333 282.239 31.2 281.372 29.6C280.572 28 279.439 26.8333 277.972 26.1C276.572 25.3667 274.939 25 273.072 25C271.205 25 269.539 25.3667 268.072 26.1C266.605 26.8333 265.439 28 264.572 29.6C263.772 31.2 263.339 33.2333 263.272 35.7C263.205 38.5 263.172 41.2667 263.172 44C263.172 46.6667 263.205 49.4333 263.272 52.3C263.405 56.0333 264.339 58.7667 266.072 60.5C267.872 62.1667 270.205 63 273.072 63Z" fill="white"/>
</svg>
